<?xml version="1.0" standalone="no"?>
<!DOCTYPE svg PUBLIC "-//W3C//DTD SVG 1.1//EN" "http://www.w3.org/Graphics/SVG/1.1/DTD/svg11.dtd">
<svg xmlns="http://www.w3.org/2000/svg" xmlns:inkscape="http://www.inkscape.org/namespaces/inkscape" xmlns:xlink="http://www.w3.org/1999/xlink" viewBox = "0 0 1314 877" version = "1.1">
<!-- svg generated using QGIS www.qgis.org -->
<g id="casti" inkscape:groupmode="layer" inkscape:label="casti">
<g stroke="rgb(35,35,35)" fill="rgb(223,210,194)" stroke-linejoin="round" stroke-width="0.40">
<g id="casti_1" inkscape:label="Brno-Bohunice">
<path d="M 603,568 L 604,570 L 602,571 L 603,573 L 603,575 L 603,576 L 604,579 L 604,580 L 605,582 L 607,586 L 610,585 L 611,585 L 612,584 L 612,585 L 613,587 L 614,588 L 615,589 L 616,590 L 617,590 L 618,591 L 619,591 L 619,592 L 620,593 L 621,594 L 622,595 L 623,595 L 624,595 L 625,595 L 626,595 L 626,596 L 627,595 L 628,595 L 629,595 L 630,595 L 631,595 L 631,596 L 632,596 L 632,597 L 633,597 L 633,598 L 634,598 L 634,599 L 635,600 L 636,600 L 637,599 L 639,599 L 640,598 L 641,597 L 642,596 L 643,596 L 644,596 L 645,595 L 646,595 L 647,594 L 648,594 L 649,594 L 650,593 L 651,593 L 652,593 L 653,593 L 653,592 L 654,592 L 655,592 L 656,591 L 658,591 L 659,590 L 660,589 L 662,589 L 662,588 L 663,588 L 665,587 L 666,587 L 670,586 L 671,586 L 672,586 L 672,587 L 672,588 L 671,589 L 670,591 L 670,592 L 670,593 L 671,594 L 671,595 L 670,597 L 671,597 L 671,598 L 672,598 L 673,599 L 674,600 L 675,600 L 676,600 L 677,600 L 678,601 L 677,602 L 677,604 L 678,606 L 679,607 L 679,608 L 679,609 L 677,609 L 676,609 L 675,609 L 675,610 L 674,610 L 673,610 L 672,610 L 671,610 L 670,611 L 669,611 L 669,612 L 669,613 L 670,613 L 670,614 L 671,615 L 670,615 L 669,615 L 668,616 L 667,616 L 667,617 L 668,618 L 668,619 L 668,620 L 668,621 L 668,622 L 668,624 L 668,625 L 668,626 L 668,627 L 669,632 L 672,633 L 673,633 L 673,634 L 676,636 L 677,636 L 677,638 L 677,639 L 676,641 L 677,641 L 678,642 L 679,642 L 680,642 L 681,642 L 682,642 L 683,642 L 684,643 L 687,643 L 687,644 L 687,645 L 686,647 L 684,650 L 682,656 L 682,657 L 681,662 L 691,666 L 696,668 L 696,669 L 696,670 L 696,671 L 696,673 L 695,673 L 692,673 L 692,674 L 692,675 L 692,676 L 692,677 L 692,679 L 692,680 L 692,681 L 692,682 L 692,683 L 691,685 L 691,686 L 691,687 L 691,688 L 691,689 L 691,692 L 690,693 L 690,696 L 690,697 L 690,698 L 690,699 L 691,699 L 695,701 L 696,702 L 698,703 L 698,704 L 697,706 L 697,707 L 696,707 L 696,708 L 695,710 L 695,711 L 695,712 L 695,713 L 694,715 L 694,718 L 694,719 L 693,721 L 693,722 L 693,723 L 692,725 L 692,726 L 692,727 L 694,728 L 694,729 L 694,730 L 694,731 L 693,732 L 693,733 L 693,734 L 693,735 L 692,736 L 692,737 L 692,738 L 692,739 L 691,739 L 691,740 L 691,741 L 690,740 L 689,740 L 688,740 L 687,740 L 686,740 L 685,739 L 683,739 L 682,739 L 681,739 L 680,738 L 679,738 L 678,738 L 677,738 L 675,737 L 675,738 L 675,739 L 675,740 L 674,741 L 674,742 L 674,743 L 674,744 L 673,744 L 673,745 L 673,746 L 673,747 L 672,749 L 671,748 L 667,747 L 666,747 L 665,747 L 662,746 L 661,746 L 660,745 L 658,745 L 657,745 L 655,744 L 654,744 L 652,744 L 651,744 L 650,744 L 649,744 L 648,744 L 647,744 L 645,744 L 644,744 L 643,744 L 642,744 L 640,745 L 640,744 L 640,743 L 640,742 L 640,741 L 638,741 L 636,741 L 635,741 L 634,741 L 633,741 L 632,741 L 631,741 L 630,741 L 629,741 L 628,741 L 627,741 L 627,742 L 626,742 L 625,738 L 625,737 L 625,736 L 624,735 L 624,736 L 623,736 L 622,736 L 622,734 L 622,733 L 621,731 L 621,730 L 621,729 L 621,728 L 621,727 L 620,725 L 620,724 L 619,724 L 618,724 L 614,726 L 612,726 L 611,726 L 609,727 L 608,726 L 607,724 L 607,723 L 607,722 L 606,722 L 604,720 L 604,719 L 604,718 L 604,717 L 597,716 L 597,715 L 598,704 L 598,699 L 598,698 L 597,698 L 596,698 L 595,698 L 594,698 L 593,698 L 592,697 L 591,697 L 590,697 L 589,697 L 588,685 L 588,683 L 587,684 L 586,684 L 585,685 L 584,685 L 583,685 L 583,684 L 582,684 L 582,683 L 581,683 L 581,682 L 580,681 L 579,680 L 578,679 L 577,679 L 577,678 L 576,678 L 576,677 L 575,677 L 574,676 L 573,676 L 572,675 L 572,674 L 571,674 L 570,673 L 570,672 L 569,671 L 569,670 L 569,669 L 569,668 L 569,667 L 569,666 L 569,665 L 570,664 L 570,663 L 571,663 L 571,662 L 572,662 L 572,661 L 573,661 L 574,660 L 575,660 L 576,659 L 577,659 L 577,658 L 579,658 L 580,657 L 581,656 L 582,655 L 583,654 L 584,653 L 584,652 L 584,651 L 585,650 L 585,649 L 585,648 L 585,647 L 586,646 L 586,645 L 586,644 L 586,643 L 586,642 L 586,641 L 587,641 L 588,641 L 587,640 L 588,640 L 588,639 L 588,638 L 589,638 L 590,637 L 591,636 L 592,636 L 593,635 L 593,634 L 594,633 L 595,633 L 596,632 L 597,631 L 597,630 L 598,630 L 598,629 L 598,628 L 597,628 L 596,627 L 594,627 L 595,626 L 595,625 L 604,627 L 605,626 L 605,624 L 606,621 L 606,619 L 606,618 L 606,617 L 607,615 L 608,610 L 608,609 L 608,608 L 608,606 L 601,608 L 600,608 L 598,608 L 592,607 L 590,607 L 589,606 L 588,606 L 587,606 L 586,606 L 585,605 L 584,605 L 583,605 L 582,605 L 581,605 L 580,605 L 580,604 L 579,604 L 578,604 L 575,603 L 574,603 L 573,603 L 572,603 L 571,602 L 570,602 L 569,602 L 569,601 L 569,598 L 569,596 L 569,595 L 569,594 L 570,594 L 570,593 L 570,592 L 570,591 L 570,590 L 570,589 L 570,587 L 570,585 L 570,583 L 570,582 L 570,580 L 571,581 L 572,581 L 573,581 L 573,577 L 572,575 L 572,574 L 573,573 L 574,573 L 574,571 L 574,570 L 573,570 L 575,570 L 578,570 L 579,571 L 584,572 L 585,573 L 587,573 L 588,572 L 590,570 L 595,569 L 596,569 L 596,570 L 602,568 L 603,568 " />
</g>
<g id="casti_2" inkscape:label="Brno-Kohoutovice">
<path d="M 466,401 L 467,402 L 467,403 L 467,404 L 468,404 L 469,404 L 471,405 L 472,405 L 473,406 L 475,408 L 477,408 L 479,409 L 482,409 L 484,409 L 487,409 L 490,407 L 492,407 L 494,407 L 496,408 L 498,409 L 500,410 L 502,410 L 503,411 L 504,411 L 506,412 L 507,412 L 508,412 L 508,411 L 509,408 L 509,407 L 510,405 L 510,403 L 511,401 L 512,398 L 514,399 L 517,401 L 518,402 L 520,403 L 522,405 L 523,405 L 527,407 L 529,410 L 530,410 L 529,410 L 528,411 L 527,412 L 527,413 L 526,414 L 526,415 L 527,416 L 527,417 L 528,418 L 529,418 L 530,418 L 534,418 L 536,418 L 537,418 L 537,419 L 536,420 L 536,421 L 535,423 L 536,423 L 537,423 L 539,424 L 540,424 L 541,424 L 542,424 L 542,425 L 543,425 L 544,425 L 545,425 L 546,425 L 547,425 L 547,426 L 548,426 L 549,426 L 549,427 L 550,427 L 550,428 L 551,428 L 551,429 L 552,430 L 552,431 L 553,431 L 553,432 L 553,433 L 554,433 L 555,434 L 556,435 L 557,436 L 558,436 L 559,436 L 559,437 L 560,438 L 561,439 L 561,440 L 562,440 L 563,441 L 562,441 L 563,442 L 563,443 L 563,444 L 564,445 L 564,447 L 564,448 L 563,448 L 563,449 L 564,450 L 565,450 L 566,450 L 566,451 L 567,451 L 568,452 L 569,452 L 569,453 L 568,454 L 568,455 L 567,455 L 567,456 L 567,457 L 567,458 L 566,460 L 566,461 L 566,462 L 569,463 L 570,464 L 571,464 L 571,465 L 572,465 L 572,466 L 573,466 L 575,467 L 576,467 L 576,468 L 577,468 L 578,468 L 578,469 L 579,469 L 580,469 L 581,469 L 582,470 L 583,470 L 583,471 L 584,471 L 584,472 L 585,472 L 585,473 L 586,474 L 587,474 L 588,474 L 588,475 L 587,475 L 586,475 L 584,476 L 583,476 L 582,476 L 582,477 L 581,477 L 580,477 L 579,476 L 578,476 L 577,476 L 576,476 L 576,477 L 577,477 L 578,478 L 579,479 L 580,479 L 579,481 L 578,482 L 576,483 L 575,486 L 574,487 L 573,489 L 572,489 L 572,490 L 571,491 L 569,494 L 568,497 L 567,499 L 567,500 L 567,504 L 567,506 L 567,509 L 567,511 L 567,514 L 568,519 L 570,523 L 572,526 L 574,530 L 575,533 L 576,534 L 576,535 L 576,536 L 577,536 L 577,537 L 576,537 L 576,536 L 574,536 L 572,536 L 569,533 L 568,533 L 567,532 L 566,532 L 565,531 L 563,530 L 562,530 L 562,529 L 561,529 L 558,527 L 556,526 L 555,525 L 552,523 L 549,521 L 548,521 L 547,520 L 546,520 L 545,520 L 544,520 L 542,520 L 541,520 L 540,520 L 539,520 L 538,523 L 538,526 L 538,529 L 538,532 L 537,535 L 535,537 L 533,540 L 532,542 L 531,543 L 530,544 L 529,546 L 528,546 L 525,544 L 524,544 L 523,544 L 523,543 L 520,542 L 515,539 L 511,538 L 502,534 L 502,533 L 496,530 L 492,528 L 490,528 L 489,528 L 488,527 L 487,527 L 486,527 L 484,526 L 483,526 L 480,527 L 477,528 L 476,528 L 476,529 L 472,527 L 470,526 L 469,525 L 469,524 L 467,524 L 466,524 L 465,523 L 464,523 L 463,523 L 463,522 L 462,522 L 461,522 L 461,521 L 460,521 L 459,521 L 459,520 L 458,520 L 456,519 L 448,515 L 447,514 L 446,514 L 445,513 L 444,512 L 443,512 L 442,511 L 441,511 L 440,510 L 438,509 L 436,508 L 433,506 L 433,507 L 432,507 L 431,508 L 430,507 L 429,507 L 427,508 L 425,509 L 424,510 L 423,509 L 421,507 L 419,504 L 418,503 L 407,493 L 406,492 L 404,490 L 402,488 L 401,487 L 398,486 L 397,485 L 395,484 L 394,481 L 389,481 L 381,480 L 380,480 L 380,479 L 380,477 L 381,477 L 385,477 L 385,476 L 385,475 L 383,474 L 382,474 L 381,473 L 380,472 L 378,470 L 377,470 L 377,469 L 375,468 L 377,467 L 380,464 L 380,463 L 382,461 L 386,457 L 387,456 L 388,455 L 390,452 L 393,446 L 394,446 L 396,442 L 398,439 L 401,435 L 401,434 L 403,431 L 405,427 L 405,426 L 406,424 L 407,422 L 408,417 L 409,416 L 409,414 L 411,415 L 413,415 L 413,414 L 414,413 L 414,412 L 415,411 L 416,411 L 417,411 L 419,410 L 420,409 L 421,408 L 422,408 L 422,407 L 423,406 L 424,406 L 424,405 L 424,404 L 425,404 L 425,403 L 426,402 L 426,401 L 427,401 L 428,400 L 429,399 L 430,399 L 431,397 L 434,394 L 437,392 L 438,391 L 439,389 L 439,388 L 440,386 L 440,385 L 440,384 L 441,382 L 442,383 L 444,384 L 445,384 L 446,385 L 447,385 L 448,386 L 449,386 L 450,387 L 452,388 L 453,390 L 454,390 L 455,391 L 456,392 L 458,393 L 459,394 L 462,396 L 464,399 L 466,401 " />
</g>
<g id="casti_3" inkscape:label="Brno-Jundrov">
<path d="M 451,248 L 452,248 L 453,248 L 454,248 L 455,249 L 456,249 L 456,250 L 457,250 L 457,251 L 458,251 L 458,252 L 459,253 L 459,254 L 460,254 L 460,255 L 461,256 L 462,256 L 464,259 L 466,261 L 468,262 L 468,263 L 469,263 L 469,264 L 470,264 L 470,265 L 471,266 L 472,267 L 473,268 L 475,269 L 476,269 L 477,270 L 478,271 L 479,272 L 481,272 L 483,273 L 484,273 L 486,273 L 489,274 L 490,274 L 491,274 L 492,274 L 494,275 L 496,275 L 497,275 L 498,275 L 502,276 L 504,275 L 506,275 L 507,275 L 509,274 L 510,274 L 510,275 L 511,275 L 512,276 L 513,276 L 514,277 L 515,277 L 516,277 L 516,278 L 518,279 L 520,280 L 521,280 L 522,280 L 522,281 L 523,281 L 524,281 L 526,281 L 526,282 L 527,283 L 527,284 L 527,285 L 528,286 L 529,287 L 532,287 L 534,286 L 536,285 L 537,285 L 538,284 L 539,284 L 539,283 L 539,286 L 540,287 L 540,288 L 540,289 L 540,290 L 540,291 L 540,292 L 540,293 L 539,294 L 539,295 L 539,296 L 539,297 L 539,299 L 540,302 L 540,304 L 541,307 L 541,308 L 541,310 L 542,310 L 542,311 L 542,312 L 543,313 L 543,314 L 543,315 L 544,315 L 544,316 L 545,317 L 545,318 L 545,319 L 545,320 L 546,321 L 546,322 L 546,323 L 546,325 L 546,326 L 546,328 L 546,330 L 546,331 L 546,333 L 547,334 L 547,336 L 548,338 L 549,339 L 549,340 L 550,340 L 551,341 L 552,341 L 554,342 L 556,343 L 557,342 L 557,341 L 557,342 L 558,342 L 559,343 L 560,344 L 562,345 L 563,346 L 564,346 L 564,347 L 565,347 L 565,348 L 566,348 L 566,349 L 567,349 L 567,350 L 567,351 L 568,352 L 568,353 L 568,354 L 568,356 L 568,357 L 568,358 L 569,359 L 569,360 L 569,361 L 570,362 L 571,363 L 572,364 L 575,366 L 576,367 L 576,368 L 577,370 L 577,371 L 577,372 L 577,373 L 577,374 L 577,375 L 576,376 L 576,377 L 576,378 L 575,379 L 575,380 L 575,381 L 575,383 L 576,384 L 576,385 L 577,387 L 577,388 L 579,390 L 580,391 L 581,392 L 582,392 L 583,393 L 584,393 L 585,394 L 586,394 L 587,395 L 588,396 L 589,396 L 591,398 L 593,400 L 593,401 L 594,401 L 595,402 L 596,403 L 598,405 L 599,406 L 600,407 L 601,408 L 601,409 L 602,411 L 603,412 L 603,414 L 602,417 L 602,418 L 601,417 L 600,421 L 600,422 L 600,423 L 600,424 L 599,425 L 599,427 L 598,427 L 598,428 L 597,428 L 597,429 L 596,429 L 596,430 L 595,430 L 595,431 L 594,435 L 594,437 L 594,439 L 594,440 L 593,446 L 593,448 L 593,450 L 593,453 L 593,455 L 593,456 L 592,461 L 591,463 L 591,466 L 591,467 L 592,470 L 592,471 L 593,473 L 592,473 L 590,474 L 589,474 L 588,475 L 587,475 L 588,475 L 588,474 L 587,474 L 586,474 L 585,473 L 585,472 L 584,472 L 584,471 L 583,471 L 583,470 L 582,470 L 581,469 L 580,469 L 579,469 L 578,469 L 578,468 L 577,468 L 576,468 L 576,467 L 575,467 L 573,466 L 572,466 L 572,465 L 571,465 L 571,464 L 570,464 L 569,463 L 566,462 L 566,461 L 566,460 L 567,458 L 567,457 L 567,456 L 567,455 L 568,455 L 568,454 L 569,453 L 569,452 L 568,452 L 567,451 L 566,451 L 566,450 L 565,450 L 564,450 L 563,449 L 563,448 L 564,448 L 564,447 L 564,445 L 563,444 L 563,443 L 563,442 L 562,441 L 563,441 L 562,440 L 561,440 L 561,439 L 560,438 L 559,437 L 559,436 L 558,436 L 557,436 L 556,435 L 555,434 L 554,433 L 553,433 L 553,432 L 553,431 L 552,431 L 552,430 L 551,429 L 551,428 L 550,428 L 550,427 L 549,427 L 549,426 L 548,426 L 547,426 L 547,425 L 546,425 L 545,425 L 544,425 L 543,425 L 542,425 L 542,424 L 541,424 L 540,424 L 539,424 L 537,423 L 536,423 L 535,423 L 536,421 L 536,420 L 537,419 L 537,418 L 536,418 L 534,418 L 530,418 L 529,418 L 528,418 L 527,417 L 527,416 L 526,415 L 526,414 L 527,413 L 527,412 L 528,411 L 529,410 L 530,410 L 529,410 L 527,407 L 523,405 L 522,405 L 520,403 L 518,402 L 517,401 L 514,399 L 512,398 L 511,401 L 510,403 L 510,405 L 509,407 L 509,408 L 508,411 L 508,412 L 507,412 L 506,412 L 504,411 L 503,411 L 502,410 L 500,410 L 498,409 L 496,408 L 494,407 L 492,407 L 490,407 L 487,409 L 484,409 L 482,409 L 479,409 L 477,408 L 475,408 L 473,406 L 472,405 L 471,405 L 469,404 L 468,404 L 467,404 L 467,403 L 467,402 L 466,401 L 464,399 L 462,396 L 459,394 L 458,393 L 456,392 L 455,391 L 454,390 L 453,390 L 452,388 L 450,387 L 449,386 L 448,386 L 447,385 L 446,385 L 445,384 L 444,384 L 442,383 L 441,382 L 441,381 L 442,379 L 443,379 L 443,376 L 443,375 L 444,375 L 444,373 L 445,372 L 446,372 L 446,371 L 448,369 L 449,368 L 449,367 L 450,367 L 450,364 L 450,363 L 451,362 L 451,360 L 452,360 L 452,358 L 453,356 L 454,355 L 454,354 L 455,351 L 455,350 L 455,349 L 455,348 L 455,347 L 454,343 L 453,342 L 452,341 L 451,339 L 451,338 L 450,337 L 450,336 L 448,334 L 446,333 L 445,331 L 443,327 L 440,325 L 437,322 L 433,321 L 432,321 L 431,322 L 429,322 L 427,322 L 425,323 L 423,323 L 422,324 L 421,324 L 420,325 L 417,325 L 415,327 L 414,327 L 411,327 L 408,328 L 403,330 L 402,330 L 399,329 L 398,329 L 397,330 L 394,331 L 393,332 L 391,331 L 390,330 L 389,329 L 389,328 L 389,327 L 389,326 L 389,322 L 388,320 L 388,318 L 387,317 L 387,316 L 388,314 L 388,313 L 389,313 L 390,313 L 391,312 L 392,312 L 393,312 L 394,312 L 396,312 L 399,311 L 400,311 L 401,311 L 402,311 L 403,311 L 404,310 L 404,309 L 405,307 L 406,306 L 406,305 L 408,302 L 408,301 L 409,300 L 409,299 L 410,298 L 410,297 L 410,296 L 409,295 L 409,294 L 409,293 L 409,292 L 408,292 L 407,290 L 407,289 L 406,287 L 405,287 L 406,285 L 407,283 L 407,282 L 408,282 L 410,282 L 411,282 L 412,282 L 413,282 L 414,281 L 413,278 L 414,277 L 414,276 L 414,274 L 414,273 L 414,272 L 414,271 L 414,270 L 414,269 L 414,268 L 414,267 L 414,266 L 413,264 L 414,264 L 414,263 L 415,262 L 417,260 L 418,259 L 419,258 L 420,258 L 424,257 L 425,257 L 427,257 L 427,256 L 429,256 L 430,256 L 431,256 L 432,256 L 433,255 L 434,254 L 435,253 L 436,253 L 437,252 L 439,251 L 441,250 L 442,250 L 444,249 L 445,249 L 447,248 L 448,248 L 449,248 L 450,248 L 451,248 " />
</g>
<g id="casti_4" inkscape:label="Brno-Královo_Pole">
<path d="M 864,87 L 865,87 L 866,87 L 867,87 L 871,88 L 874,88 L 877,88 L 878,88 L 880,88 L 882,89 L 883,88 L 884,89 L 887,91 L 889,92 L 890,93 L 893,94 L 894,95 L 896,96 L 901,98 L 905,99 L 906,100 L 907,101 L 910,103 L 911,104 L 912,105 L 913,105 L 913,106 L 914,107 L 915,108 L 916,109 L 917,109 L 918,109 L 918,110 L 919,110 L 920,111 L 920,112 L 920,111 L 921,111 L 921,110 L 921,109 L 922,108 L 922,106 L 923,104 L 924,105 L 925,105 L 925,106 L 926,106 L 927,108 L 927,109 L 928,108 L 928,109 L 929,110 L 930,111 L 931,112 L 933,116 L 934,117 L 934,118 L 935,120 L 935,122 L 936,126 L 936,131 L 937,133 L 937,134 L 937,139 L 937,142 L 937,144 L 937,145 L 937,146 L 937,147 L 937,148 L 937,149 L 936,150 L 936,152 L 936,153 L 935,154 L 935,155 L 934,155 L 932,154 L 930,155 L 928,157 L 922,160 L 922,161 L 918,163 L 916,164 L 915,164 L 914,165 L 912,165 L 910,165 L 909,165 L 905,166 L 902,167 L 900,170 L 899,173 L 897,176 L 896,176 L 895,177 L 894,177 L 893,177 L 892,177 L 890,178 L 889,178 L 889,179 L 887,180 L 886,181 L 885,182 L 884,183 L 883,183 L 882,183 L 881,183 L 880,183 L 879,184 L 878,184 L 878,185 L 877,186 L 877,187 L 876,188 L 874,190 L 874,191 L 873,191 L 871,191 L 870,192 L 870,193 L 869,193 L 868,191 L 867,191 L 867,192 L 866,194 L 865,194 L 865,195 L 864,195 L 863,196 L 862,196 L 862,197 L 861,198 L 860,199 L 860,201 L 860,202 L 859,203 L 859,204 L 859,205 L 858,206 L 858,207 L 857,207 L 857,208 L 856,209 L 855,210 L 854,212 L 855,212 L 855,213 L 856,215 L 856,216 L 856,217 L 857,218 L 858,219 L 858,220 L 859,221 L 860,222 L 860,223 L 860,224 L 861,224 L 861,225 L 860,225 L 860,226 L 860,227 L 860,228 L 859,229 L 857,230 L 855,231 L 854,231 L 853,232 L 852,233 L 850,234 L 850,235 L 849,236 L 847,237 L 845,238 L 843,240 L 842,241 L 841,242 L 840,245 L 840,246 L 840,247 L 841,248 L 842,250 L 843,250 L 843,251 L 844,252 L 844,253 L 846,254 L 849,256 L 852,257 L 852,258 L 853,258 L 854,258 L 856,259 L 858,260 L 859,261 L 861,262 L 862,263 L 863,264 L 864,264 L 865,264 L 865,265 L 866,266 L 867,266 L 869,267 L 874,270 L 875,271 L 876,272 L 878,273 L 879,273 L 884,276 L 882,278 L 882,279 L 883,279 L 885,280 L 886,280 L 887,281 L 888,281 L 889,281 L 889,282 L 890,282 L 891,283 L 892,283 L 892,284 L 893,284 L 892,285 L 890,284 L 889,284 L 888,283 L 888,284 L 888,285 L 887,286 L 887,287 L 886,288 L 885,288 L 885,289 L 886,290 L 886,291 L 885,291 L 883,293 L 882,293 L 882,294 L 881,294 L 880,294 L 879,294 L 878,294 L 877,294 L 877,295 L 876,294 L 875,294 L 875,295 L 874,295 L 873,295 L 874,295 L 874,296 L 874,297 L 874,298 L 873,298 L 873,299 L 871,301 L 870,302 L 869,303 L 869,304 L 870,304 L 870,305 L 869,307 L 867,309 L 864,311 L 860,315 L 859,316 L 858,318 L 857,320 L 856,321 L 856,322 L 855,323 L 855,324 L 855,325 L 855,326 L 854,327 L 854,328 L 854,329 L 855,329 L 855,330 L 855,331 L 855,332 L 856,338 L 858,343 L 858,344 L 858,345 L 859,348 L 859,349 L 859,350 L 859,351 L 859,352 L 859,353 L 858,353 L 858,354 L 859,354 L 859,355 L 859,356 L 858,356 L 857,357 L 855,358 L 853,360 L 852,360 L 851,361 L 850,361 L 850,362 L 849,361 L 847,362 L 846,363 L 845,364 L 844,365 L 842,365 L 841,366 L 840,366 L 839,367 L 837,367 L 835,367 L 834,367 L 833,367 L 832,367 L 830,367 L 829,368 L 828,368 L 827,368 L 826,368 L 826,369 L 825,369 L 824,370 L 823,371 L 823,372 L 822,372 L 822,373 L 822,374 L 821,374 L 820,374 L 820,375 L 819,375 L 817,376 L 817,377 L 816,377 L 815,377 L 815,378 L 814,378 L 811,379 L 802,383 L 800,383 L 799,384 L 796,385 L 795,385 L 794,385 L 794,384 L 793,384 L 792,379 L 792,378 L 791,373 L 791,372 L 790,372 L 788,364 L 788,363 L 787,364 L 786,364 L 786,363 L 782,364 L 778,365 L 773,367 L 771,367 L 768,368 L 767,368 L 766,369 L 765,369 L 764,369 L 759,370 L 757,371 L 754,372 L 748,374 L 747,374 L 747,373 L 745,365 L 742,357 L 742,354 L 742,353 L 741,353 L 740,348 L 740,347 L 739,346 L 738,342 L 739,342 L 739,341 L 738,341 L 737,337 L 737,336 L 737,335 L 737,334 L 736,334 L 735,335 L 734,334 L 733,334 L 732,333 L 731,333 L 730,332 L 727,323 L 726,324 L 725,324 L 718,326 L 717,327 L 717,326 L 714,320 L 714,319 L 713,316 L 712,314 L 711,312 L 710,309 L 709,306 L 707,302 L 707,300 L 706,300 L 706,299 L 705,298 L 704,294 L 702,289 L 701,287 L 701,286 L 700,284 L 699,282 L 699,281 L 698,278 L 697,277 L 697,276 L 697,275 L 697,274 L 698,274 L 698,273 L 697,273 L 697,272 L 696,272 L 696,271 L 695,271 L 695,270 L 694,270 L 692,264 L 690,261 L 689,261 L 688,262 L 685,263 L 684,263 L 684,262 L 684,260 L 683,259 L 683,258 L 683,257 L 682,256 L 682,255 L 682,254 L 681,254 L 681,253 L 680,253 L 679,253 L 678,253 L 677,253 L 676,253 L 675,253 L 674,253 L 673,253 L 672,253 L 671,252 L 670,252 L 669,252 L 668,252 L 667,251 L 666,251 L 665,251 L 664,250 L 663,250 L 662,249 L 661,249 L 660,249 L 660,248 L 660,249 L 660,250 L 659,249 L 659,248 L 658,248 L 657,247 L 656,247 L 656,246 L 655,246 L 655,245 L 654,245 L 653,245 L 653,244 L 652,244 L 651,244 L 651,243 L 650,243 L 649,242 L 648,242 L 648,241 L 646,241 L 645,240 L 644,240 L 644,239 L 642,239 L 641,239 L 641,238 L 641,237 L 639,235 L 637,232 L 636,232 L 635,231 L 632,229 L 631,228 L 631,227 L 632,226 L 631,223 L 631,220 L 630,219 L 630,218 L 628,216 L 626,216 L 626,215 L 625,215 L 624,215 L 622,215 L 621,214 L 618,213 L 617,212 L 616,209 L 615,209 L 615,206 L 615,205 L 616,204 L 616,202 L 616,201 L 615,201 L 614,200 L 613,200 L 613,199 L 612,199 L 610,199 L 609,198 L 608,197 L 607,197 L 607,196 L 607,195 L 606,194 L 606,193 L 605,193 L 604,193 L 604,192 L 604,191 L 604,190 L 604,189 L 604,187 L 605,184 L 606,182 L 606,181 L 607,178 L 608,177 L 609,175 L 609,174 L 610,174 L 611,174 L 611,173 L 611,172 L 612,169 L 614,165 L 614,164 L 616,160 L 616,156 L 616,153 L 616,151 L 616,146 L 616,143 L 616,140 L 616,139 L 617,137 L 618,135 L 619,135 L 619,134 L 620,133 L 621,134 L 622,135 L 623,136 L 624,137 L 625,138 L 626,139 L 627,139 L 628,139 L 628,140 L 626,141 L 627,142 L 629,143 L 629,144 L 630,144 L 631,145 L 632,145 L 632,146 L 633,147 L 634,147 L 633,148 L 634,148 L 634,149 L 635,150 L 635,149 L 636,150 L 636,151 L 637,152 L 638,153 L 639,154 L 639,155 L 640,155 L 640,156 L 641,157 L 642,159 L 643,160 L 643,161 L 644,162 L 645,163 L 646,165 L 647,166 L 647,167 L 648,168 L 648,169 L 649,169 L 651,173 L 652,174 L 653,176 L 654,177 L 654,178 L 655,179 L 654,179 L 655,181 L 656,181 L 657,182 L 658,184 L 659,185 L 659,186 L 660,187 L 661,189 L 663,192 L 665,194 L 667,194 L 670,193 L 671,193 L 672,193 L 675,193 L 676,193 L 676,192 L 677,192 L 678,192 L 679,192 L 680,192 L 682,192 L 684,191 L 685,191 L 687,191 L 688,190 L 689,190 L 691,190 L 692,189 L 694,188 L 696,187 L 699,186 L 702,184 L 706,182 L 709,181 L 710,180 L 711,179 L 714,179 L 715,178 L 717,178 L 718,178 L 719,178 L 722,178 L 723,178 L 724,178 L 725,178 L 726,178 L 728,178 L 729,178 L 730,178 L 731,179 L 732,179 L 733,179 L 734,179 L 735,179 L 734,177 L 734,176 L 734,175 L 733,175 L 733,174 L 733,173 L 732,172 L 732,171 L 732,170 L 733,170 L 734,170 L 735,169 L 736,169 L 737,169 L 738,169 L 739,169 L 741,168 L 743,168 L 744,168 L 745,168 L 746,168 L 747,168 L 748,167 L 749,167 L 750,167 L 751,167 L 752,167 L 752,166 L 753,166 L 755,166 L 755,165 L 755,164 L 755,165 L 755,164 L 753,161 L 753,160 L 752,158 L 751,155 L 750,154 L 750,153 L 748,151 L 747,148 L 747,147 L 747,146 L 747,144 L 746,142 L 746,141 L 746,139 L 746,137 L 746,135 L 747,133 L 747,132 L 747,131 L 747,130 L 747,128 L 747,127 L 747,126 L 747,125 L 748,125 L 749,125 L 750,125 L 750,124 L 753,124 L 754,124 L 755,124 L 756,124 L 757,124 L 758,125 L 758,124 L 758,123 L 759,123 L 760,122 L 761,122 L 763,122 L 765,122 L 765,123 L 770,123 L 773,122 L 774,122 L 775,122 L 776,122 L 777,122 L 778,122 L 781,124 L 782,125 L 783,126 L 784,126 L 784,125 L 787,124 L 788,124 L 791,125 L 791,124 L 793,123 L 794,122 L 795,121 L 796,119 L 798,117 L 799,117 L 799,116 L 801,115 L 802,115 L 804,115 L 805,114 L 806,114 L 809,112 L 811,110 L 814,109 L 816,107 L 818,106 L 819,104 L 822,101 L 823,99 L 827,96 L 828,95 L 831,93 L 833,92 L 836,92 L 840,91 L 844,90 L 845,90 L 851,88 L 856,87 L 857,87 L 858,87 L 861,87 L 862,87 L 863,87 L 864,87 " />
</g>
<g id="casti_5" inkscape:label="Brno-Nový_Lískovec">
<path d="M 541,520 L 542,520 L 544,520 L 545,520 L 546,520 L 547,520 L 548,521 L 549,521 L 552,523 L 555,525 L 556,526 L 558,527 L 561,529 L 562,529 L 562,530 L 563,530 L 565,531 L 566,532 L 567,532 L 568,533 L 569,533 L 572,536 L 574,536 L 576,536 L 576,537 L 577,537 L 578,537 L 579,537 L 580,537 L 580,538 L 581,538 L 582,539 L 584,539 L 584,540 L 584,541 L 584,542 L 583,544 L 583,546 L 582,547 L 582,548 L 580,550 L 580,551 L 580,552 L 580,553 L 580,555 L 580,559 L 581,562 L 580,562 L 573,563 L 573,564 L 572,564 L 572,565 L 572,566 L 573,567 L 573,568 L 573,569 L 573,570 L 574,570 L 574,571 L 574,573 L 573,573 L 572,574 L 572,575 L 573,577 L 573,581 L 572,581 L 571,581 L 570,580 L 570,582 L 570,583 L 570,585 L 570,587 L 570,589 L 570,590 L 570,591 L 570,592 L 570,593 L 570,594 L 569,594 L 569,595 L 569,596 L 569,598 L 569,601 L 569,602 L 565,601 L 564,601 L 564,600 L 563,600 L 562,600 L 561,599 L 560,599 L 559,599 L 558,599 L 558,600 L 558,601 L 558,602 L 557,604 L 556,606 L 556,607 L 556,608 L 555,608 L 555,609 L 554,610 L 554,612 L 553,612 L 553,613 L 552,615 L 550,617 L 549,619 L 549,620 L 548,620 L 547,621 L 546,621 L 545,621 L 544,621 L 542,621 L 536,621 L 535,621 L 534,621 L 532,621 L 531,621 L 529,621 L 528,621 L 527,621 L 526,621 L 525,621 L 524,621 L 523,621 L 522,621 L 521,621 L 520,621 L 519,621 L 518,621 L 514,621 L 513,622 L 508,622 L 507,622 L 505,622 L 504,622 L 504,621 L 504,620 L 504,619 L 504,618 L 503,618 L 502,617 L 502,616 L 501,614 L 499,610 L 499,609 L 498,609 L 497,608 L 496,607 L 495,607 L 492,611 L 491,611 L 491,610 L 490,610 L 490,609 L 489,609 L 488,608 L 487,607 L 487,606 L 486,605 L 486,604 L 485,603 L 485,602 L 484,601 L 484,600 L 484,599 L 483,599 L 483,598 L 483,597 L 482,596 L 482,595 L 482,594 L 481,593 L 481,592 L 481,591 L 480,590 L 480,589 L 479,588 L 479,587 L 479,586 L 478,586 L 478,585 L 478,584 L 478,583 L 477,582 L 477,581 L 477,580 L 477,579 L 476,578 L 476,577 L 476,576 L 475,575 L 475,574 L 475,573 L 474,573 L 474,572 L 474,571 L 475,570 L 475,569 L 474,567 L 474,566 L 474,565 L 473,563 L 473,560 L 473,559 L 474,556 L 474,555 L 474,554 L 474,552 L 474,551 L 474,550 L 474,549 L 475,548 L 475,547 L 475,545 L 476,543 L 476,541 L 476,538 L 476,535 L 476,534 L 476,533 L 475,531 L 475,530 L 476,529 L 476,528 L 477,528 L 480,527 L 483,526 L 484,526 L 486,527 L 487,527 L 488,527 L 489,528 L 490,528 L 492,528 L 496,530 L 502,533 L 502,534 L 511,538 L 515,539 L 520,542 L 523,543 L 523,544 L 524,544 L 525,544 L 528,546 L 529,546 L 530,544 L 531,543 L 532,542 L 533,540 L 535,537 L 537,535 L 538,532 L 538,529 L 538,526 L 538,523 L 539,520 L 540,520 L 541,520 " />
</g>
<g id="casti_6" inkscape:label="Brno-Starý_Lískovec">
<path d="M 561,599 L 562,600 L 563,600 L 564,600 L 564,601 L 565,601 L 569,602 L 570,602 L 571,602 L 572,603 L 573,603 L 574,603 L 575,603 L 578,604 L 579,604 L 580,604 L 580,605 L 581,605 L 582,605 L 583,605 L 584,605 L 585,605 L 586,606 L 587,606 L 588,606 L 589,606 L 590,607 L 592,607 L 598,608 L 600,608 L 601,608 L 608,606 L 608,608 L 608,609 L 608,610 L 607,615 L 606,617 L 606,618 L 606,619 L 606,621 L 605,624 L 605,626 L 604,627 L 595,625 L 595,626 L 594,627 L 596,627 L 597,628 L 598,628 L 598,629 L 598,630 L 597,630 L 597,631 L 596,632 L 595,633 L 594,633 L 593,634 L 593,635 L 592,636 L 591,636 L 590,637 L 589,638 L 588,638 L 588,639 L 588,640 L 587,640 L 588,641 L 587,641 L 586,641 L 586,642 L 586,643 L 586,644 L 586,645 L 586,646 L 585,647 L 585,648 L 585,649 L 585,650 L 584,651 L 584,652 L 584,653 L 583,654 L 582,655 L 581,656 L 580,657 L 579,658 L 577,658 L 577,659 L 576,659 L 575,660 L 574,660 L 573,661 L 572,661 L 572,662 L 571,662 L 571,663 L 570,663 L 570,664 L 569,665 L 569,666 L 569,667 L 569,668 L 569,669 L 569,670 L 569,671 L 570,672 L 570,673 L 571,674 L 572,674 L 572,675 L 573,676 L 574,676 L 575,677 L 576,677 L 576,678 L 577,678 L 577,679 L 578,679 L 579,680 L 580,681 L 581,682 L 581,683 L 582,683 L 582,684 L 583,684 L 583,685 L 584,685 L 585,685 L 586,684 L 587,684 L 588,683 L 588,685 L 589,697 L 590,697 L 591,697 L 592,697 L 593,698 L 594,698 L 595,698 L 596,698 L 597,698 L 598,698 L 598,699 L 598,704 L 597,715 L 597,716 L 604,717 L 604,718 L 604,719 L 604,720 L 606,722 L 607,722 L 607,723 L 607,724 L 606,724 L 606,725 L 605,725 L 604,725 L 605,726 L 605,727 L 605,728 L 605,729 L 606,730 L 606,731 L 606,732 L 606,733 L 607,734 L 607,735 L 607,736 L 608,736 L 605,738 L 601,741 L 600,741 L 601,742 L 604,746 L 608,754 L 609,757 L 611,760 L 611,761 L 607,762 L 605,764 L 604,764 L 603,764 L 602,765 L 601,765 L 600,766 L 599,766 L 596,767 L 595,767 L 594,767 L 593,768 L 592,768 L 591,768 L 590,768 L 589,769 L 588,769 L 587,769 L 586,770 L 585,770 L 584,770 L 583,770 L 582,770 L 581,770 L 581,771 L 580,771 L 579,771 L 578,771 L 577,771 L 576,772 L 575,772 L 574,772 L 573,772 L 572,772 L 571,772 L 571,773 L 570,773 L 569,773 L 568,773 L 567,773 L 567,774 L 566,774 L 565,774 L 564,774 L 563,774 L 562,775 L 561,775 L 560,775 L 559,775 L 558,775 L 557,775 L 556,775 L 556,774 L 555,774 L 554,774 L 553,774 L 553,773 L 552,773 L 551,773 L 550,773 L 549,773 L 548,773 L 547,773 L 546,773 L 545,773 L 545,776 L 545,778 L 544,778 L 543,778 L 542,778 L 541,777 L 540,777 L 539,776 L 538,776 L 537,776 L 534,781 L 529,788 L 529,787 L 528,787 L 527,787 L 527,786 L 526,786 L 525,786 L 524,786 L 524,785 L 523,785 L 522,785 L 521,784 L 520,784 L 520,783 L 519,783 L 518,783 L 518,782 L 517,782 L 516,782 L 516,781 L 515,781 L 514,780 L 514,779 L 513,779 L 513,778 L 512,778 L 512,777 L 511,776 L 511,775 L 510,775 L 510,774 L 509,773 L 507,771 L 507,770 L 508,770 L 508,769 L 509,768 L 510,767 L 511,765 L 513,764 L 513,762 L 514,761 L 515,760 L 513,759 L 509,755 L 504,752 L 504,751 L 501,749 L 501,747 L 501,746 L 501,744 L 502,742 L 502,740 L 502,737 L 502,736 L 502,735 L 502,733 L 501,731 L 499,727 L 498,725 L 498,724 L 497,722 L 497,721 L 497,720 L 497,718 L 497,717 L 498,717 L 500,711 L 500,710 L 501,710 L 501,709 L 501,708 L 501,707 L 501,706 L 501,705 L 501,704 L 500,702 L 498,697 L 497,694 L 497,693 L 498,692 L 499,691 L 499,690 L 498,690 L 498,689 L 497,689 L 496,689 L 496,688 L 495,687 L 494,687 L 493,685 L 492,685 L 492,684 L 491,684 L 491,683 L 490,681 L 489,680 L 489,679 L 488,678 L 487,678 L 485,677 L 484,676 L 483,676 L 482,675 L 482,674 L 482,673 L 481,672 L 481,670 L 480,670 L 480,669 L 480,668 L 479,667 L 478,666 L 478,665 L 477,664 L 476,663 L 475,662 L 478,658 L 480,657 L 480,656 L 481,655 L 482,653 L 483,653 L 483,652 L 484,652 L 484,651 L 485,650 L 486,649 L 488,646 L 489,645 L 490,643 L 491,643 L 491,642 L 491,641 L 492,641 L 492,640 L 493,640 L 493,639 L 494,639 L 495,637 L 495,636 L 496,636 L 497,634 L 499,632 L 499,631 L 499,630 L 499,629 L 499,628 L 499,627 L 499,626 L 498,625 L 499,625 L 500,625 L 503,626 L 504,627 L 505,627 L 505,628 L 506,628 L 506,627 L 505,624 L 505,623 L 505,622 L 507,622 L 508,622 L 513,622 L 514,621 L 518,621 L 519,621 L 520,621 L 521,621 L 522,621 L 523,621 L 524,621 L 525,621 L 526,621 L 527,621 L 528,621 L 529,621 L 531,621 L 532,621 L 534,621 L 535,621 L 536,621 L 542,621 L 544,621 L 545,621 L 546,621 L 547,621 L 548,620 L 549,620 L 549,619 L 550,617 L 552,615 L 553,613 L 553,612 L 554,612 L 554,610 L 555,609 L 555,608 L 556,608 L 556,607 L 556,606 L 557,604 L 558,602 L 558,601 L 558,600 L 558,599 L 559,599 L 560,599 L 561,599 " />
</g>
<g id="casti_7" inkscape:label="Brno-střed">
<path d="M 745,365 L 747,373 L 747,374 L 748,374 L 754,372 L 757,371 L 759,370 L 764,369 L 765,369 L 766,369 L 767,368 L 768,368 L 771,367 L 773,367 L 778,365 L 782,364 L 786,363 L 786,364 L 787,364 L 788,363 L 788,364 L 790,372 L 791,372 L 791,373 L 792,378 L 792,379 L 793,384 L 794,384 L 794,385 L 795,385 L 796,385 L 799,384 L 800,383 L 802,383 L 811,379 L 814,378 L 815,378 L 815,377 L 816,377 L 817,377 L 817,376 L 819,375 L 820,375 L 820,374 L 821,374 L 821,375 L 821,376 L 821,377 L 821,378 L 822,378 L 822,379 L 822,380 L 822,381 L 823,382 L 823,383 L 823,384 L 824,385 L 825,385 L 825,386 L 825,387 L 826,387 L 826,388 L 827,389 L 829,391 L 829,392 L 830,394 L 831,395 L 832,396 L 833,397 L 834,398 L 835,399 L 836,399 L 836,400 L 836,401 L 837,401 L 837,402 L 837,403 L 837,404 L 837,405 L 837,406 L 837,407 L 837,408 L 837,409 L 837,410 L 837,411 L 837,412 L 837,414 L 836,417 L 836,418 L 836,426 L 836,427 L 839,427 L 840,429 L 844,437 L 844,439 L 845,439 L 846,439 L 846,440 L 847,440 L 848,440 L 849,440 L 849,441 L 850,441 L 851,441 L 852,441 L 853,441 L 855,441 L 856,441 L 857,441 L 858,441 L 858,440 L 859,440 L 860,440 L 861,440 L 863,440 L 863,439 L 864,439 L 866,438 L 867,438 L 868,438 L 869,438 L 870,438 L 871,437 L 872,437 L 873,437 L 874,437 L 875,437 L 876,437 L 877,438 L 877,440 L 877,441 L 877,443 L 877,444 L 877,445 L 877,446 L 877,448 L 877,449 L 877,450 L 877,451 L 877,452 L 876,452 L 875,452 L 874,453 L 874,454 L 874,455 L 874,456 L 874,457 L 875,458 L 875,460 L 875,461 L 875,462 L 875,463 L 875,464 L 876,464 L 878,463 L 879,463 L 880,463 L 881,463 L 882,463 L 882,462 L 883,462 L 884,462 L 885,462 L 887,461 L 888,461 L 889,461 L 890,461 L 891,461 L 891,460 L 893,460 L 894,460 L 895,460 L 896,460 L 896,461 L 897,461 L 898,462 L 898,463 L 899,463 L 902,466 L 903,467 L 904,468 L 905,469 L 907,471 L 908,471 L 910,472 L 912,464 L 914,465 L 915,465 L 914,465 L 914,470 L 913,472 L 913,473 L 911,484 L 910,484 L 910,486 L 910,489 L 909,489 L 908,490 L 907,490 L 907,491 L 907,492 L 906,495 L 905,502 L 903,509 L 902,513 L 902,515 L 902,516 L 901,517 L 901,518 L 901,519 L 900,524 L 900,525 L 899,526 L 899,527 L 899,529 L 900,530 L 900,533 L 900,534 L 900,536 L 900,537 L 900,539 L 900,542 L 900,543 L 900,544 L 900,545 L 900,546 L 900,547 L 900,548 L 899,548 L 899,547 L 899,546 L 899,545 L 893,548 L 891,548 L 890,548 L 889,549 L 888,550 L 887,550 L 887,551 L 887,552 L 887,553 L 886,553 L 885,553 L 886,553 L 886,552 L 885,552 L 886,552 L 886,551 L 885,551 L 883,552 L 882,552 L 878,553 L 876,554 L 873,555 L 871,556 L 870,557 L 867,558 L 866,558 L 865,558 L 864,558 L 865,559 L 865,560 L 864,560 L 864,559 L 863,558 L 863,559 L 859,560 L 858,560 L 857,560 L 858,562 L 857,562 L 857,561 L 856,560 L 855,560 L 853,561 L 853,562 L 851,562 L 846,564 L 845,564 L 845,565 L 844,566 L 844,567 L 845,568 L 845,570 L 845,571 L 846,572 L 846,573 L 846,574 L 847,575 L 847,576 L 847,578 L 847,579 L 848,580 L 848,581 L 848,582 L 848,583 L 847,583 L 845,583 L 843,583 L 841,583 L 841,582 L 840,582 L 840,583 L 837,588 L 834,594 L 831,598 L 830,601 L 829,602 L 829,603 L 828,603 L 828,604 L 825,610 L 822,614 L 822,615 L 823,615 L 823,616 L 823,617 L 822,618 L 821,618 L 821,619 L 819,621 L 818,620 L 817,619 L 816,619 L 814,622 L 814,623 L 816,623 L 815,623 L 813,624 L 811,624 L 810,624 L 809,625 L 808,626 L 807,627 L 804,629 L 803,631 L 802,631 L 802,632 L 801,632 L 801,633 L 801,634 L 800,633 L 799,633 L 798,631 L 797,631 L 797,630 L 796,629 L 793,627 L 791,624 L 789,621 L 788,619 L 788,618 L 787,618 L 787,617 L 786,616 L 785,617 L 785,619 L 784,620 L 784,625 L 784,626 L 783,630 L 782,631 L 782,635 L 781,638 L 781,639 L 781,640 L 780,648 L 779,655 L 779,656 L 779,657 L 779,658 L 778,659 L 778,660 L 778,661 L 778,662 L 777,666 L 777,667 L 777,668 L 777,669 L 776,673 L 774,674 L 771,676 L 770,676 L 769,677 L 768,676 L 767,676 L 767,677 L 767,678 L 766,679 L 765,682 L 765,683 L 764,687 L 763,690 L 754,687 L 753,687 L 753,688 L 752,689 L 749,698 L 749,699 L 749,700 L 748,700 L 747,700 L 743,698 L 742,698 L 742,699 L 741,699 L 740,698 L 739,698 L 737,697 L 735,697 L 734,697 L 733,697 L 732,697 L 731,697 L 730,697 L 729,697 L 728,697 L 728,698 L 728,697 L 728,698 L 728,699 L 728,700 L 728,701 L 728,702 L 729,702 L 728,702 L 729,702 L 728,702 L 728,703 L 729,703 L 728,703 L 729,703 L 728,703 L 729,703 L 728,703 L 729,703 L 729,704 L 729,705 L 729,706 L 728,706 L 725,706 L 717,707 L 716,707 L 715,707 L 711,707 L 710,707 L 703,705 L 702,705 L 701,705 L 698,703 L 696,702 L 695,701 L 691,699 L 690,699 L 690,698 L 690,697 L 690,696 L 690,693 L 691,692 L 691,689 L 691,688 L 691,687 L 691,686 L 691,685 L 692,683 L 692,682 L 692,681 L 692,680 L 692,679 L 692,677 L 692,676 L 692,675 L 692,674 L 692,673 L 695,673 L 696,673 L 696,671 L 696,670 L 696,669 L 696,668 L 691,666 L 681,662 L 682,657 L 682,656 L 684,650 L 686,647 L 687,645 L 687,644 L 687,643 L 684,643 L 683,642 L 682,642 L 681,642 L 680,642 L 679,642 L 678,642 L 677,641 L 676,641 L 677,639 L 677,638 L 677,636 L 676,636 L 673,634 L 673,633 L 672,633 L 669,632 L 668,627 L 668,626 L 668,625 L 668,624 L 668,622 L 668,621 L 668,620 L 668,619 L 668,618 L 667,617 L 667,616 L 668,616 L 669,615 L 670,615 L 671,615 L 670,614 L 670,613 L 669,613 L 669,612 L 669,611 L 670,611 L 671,610 L 672,610 L 673,610 L 674,610 L 675,610 L 675,609 L 676,609 L 677,609 L 679,609 L 679,608 L 679,607 L 678,606 L 677,604 L 677,602 L 678,601 L 677,600 L 676,600 L 675,600 L 674,600 L 673,599 L 672,598 L 671,598 L 671,597 L 670,597 L 671,595 L 671,594 L 670,593 L 670,592 L 670,591 L 671,589 L 672,588 L 672,587 L 672,586 L 671,586 L 670,586 L 666,587 L 665,587 L 663,588 L 662,588 L 662,589 L 660,589 L 659,590 L 658,591 L 656,591 L 655,592 L 654,592 L 653,592 L 653,593 L 652,593 L 651,593 L 650,593 L 649,594 L 648,594 L 647,594 L 646,595 L 645,595 L 644,596 L 643,596 L 642,596 L 641,597 L 640,598 L 639,599 L 637,599 L 636,600 L 635,600 L 634,599 L 634,598 L 633,598 L 633,597 L 632,597 L 632,596 L 631,596 L 631,595 L 630,595 L 629,595 L 628,595 L 627,595 L 626,596 L 626,595 L 625,595 L 624,595 L 623,595 L 622,595 L 621,594 L 620,593 L 619,592 L 619,591 L 618,591 L 617,590 L 616,590 L 615,589 L 614,588 L 613,587 L 612,585 L 612,584 L 611,585 L 610,585 L 607,586 L 605,582 L 604,580 L 604,579 L 603,576 L 603,575 L 603,573 L 602,571 L 604,570 L 603,568 L 602,568 L 596,570 L 596,569 L 595,569 L 590,570 L 588,572 L 587,573 L 585,573 L 584,572 L 579,571 L 578,570 L 575,570 L 573,570 L 573,569 L 573,568 L 573,567 L 572,566 L 572,565 L 572,564 L 573,564 L 573,563 L 580,562 L 581,562 L 580,559 L 580,555 L 580,553 L 580,552 L 580,551 L 580,550 L 582,548 L 582,547 L 583,546 L 583,544 L 584,542 L 584,541 L 584,540 L 584,539 L 582,539 L 581,538 L 580,538 L 580,537 L 579,537 L 578,537 L 577,537 L 577,536 L 576,536 L 576,535 L 576,534 L 575,533 L 574,530 L 572,526 L 570,523 L 568,519 L 567,514 L 567,511 L 567,509 L 567,506 L 567,504 L 567,500 L 567,499 L 568,497 L 569,494 L 571,491 L 572,490 L 572,489 L 573,489 L 574,487 L 575,486 L 576,483 L 578,482 L 579,481 L 580,479 L 579,479 L 578,478 L 577,477 L 576,477 L 576,476 L 577,476 L 578,476 L 579,476 L 580,477 L 581,477 L 582,477 L 582,476 L 583,476 L 584,476 L 586,475 L 587,475 L 588,475 L 589,474 L 590,474 L 592,473 L 593,473 L 592,471 L 592,470 L 591,467 L 591,466 L 591,463 L 592,461 L 593,456 L 593,455 L 593,453 L 593,450 L 593,448 L 593,446 L 594,440 L 594,439 L 594,437 L 594,435 L 595,431 L 595,430 L 596,430 L 596,429 L 597,429 L 597,428 L 598,428 L 598,427 L 599,427 L 599,425 L 600,424 L 600,423 L 600,422 L 600,421 L 601,417 L 602,418 L 603,418 L 604,418 L 604,419 L 604,420 L 605,420 L 606,420 L 609,423 L 609,424 L 610,424 L 610,423 L 611,422 L 610,421 L 611,420 L 611,419 L 612,418 L 613,418 L 613,417 L 613,416 L 614,416 L 614,415 L 615,414 L 616,413 L 617,412 L 617,411 L 617,410 L 617,409 L 618,408 L 619,407 L 620,407 L 620,406 L 621,406 L 621,405 L 622,404 L 624,402 L 626,401 L 627,400 L 628,400 L 629,402 L 630,402 L 631,402 L 633,404 L 635,406 L 636,408 L 637,410 L 637,411 L 640,414 L 641,415 L 642,414 L 643,413 L 644,412 L 645,412 L 646,410 L 647,410 L 648,409 L 649,408 L 650,408 L 650,407 L 651,406 L 652,406 L 653,405 L 653,404 L 654,404 L 655,403 L 656,402 L 657,402 L 658,402 L 658,401 L 659,401 L 660,400 L 661,400 L 662,399 L 663,399 L 663,398 L 664,398 L 665,398 L 665,397 L 666,398 L 667,399 L 667,400 L 670,404 L 671,407 L 672,406 L 673,407 L 674,407 L 675,407 L 676,407 L 677,407 L 678,407 L 679,407 L 680,407 L 680,406 L 680,405 L 680,404 L 680,403 L 680,402 L 680,401 L 680,400 L 680,399 L 680,398 L 681,396 L 682,396 L 683,396 L 684,396 L 684,395 L 685,393 L 685,392 L 685,391 L 686,390 L 687,390 L 687,389 L 688,389 L 689,387 L 690,387 L 693,385 L 698,381 L 700,380 L 699,379 L 700,379 L 701,379 L 702,378 L 703,377 L 705,376 L 706,376 L 707,375 L 708,374 L 709,374 L 711,372 L 712,372 L 712,371 L 713,371 L 714,370 L 715,369 L 716,369 L 717,368 L 719,367 L 720,366 L 721,366 L 722,365 L 722,364 L 721,364 L 722,363 L 724,362 L 726,362 L 726,361 L 726,360 L 726,359 L 727,359 L 727,358 L 728,358 L 735,356 L 738,356 L 740,355 L 740,354 L 741,354 L 742,353 L 742,354 L 742,357 L 745,365 " />
</g>
<g id="casti_8" inkscape:label="Brno-Žabovřesky">
<path d="M 631,223 L 632,226 L 631,227 L 631,228 L 632,229 L 635,231 L 636,232 L 637,232 L 639,235 L 641,237 L 641,238 L 641,239 L 642,239 L 644,239 L 644,240 L 645,240 L 646,241 L 648,241 L 648,242 L 649,242 L 650,243 L 651,243 L 651,244 L 652,244 L 653,244 L 653,245 L 654,245 L 655,245 L 655,246 L 656,246 L 656,247 L 657,247 L 658,248 L 659,248 L 659,249 L 660,250 L 660,249 L 660,248 L 660,249 L 661,249 L 662,249 L 663,250 L 664,250 L 665,251 L 666,251 L 667,251 L 668,252 L 669,252 L 670,252 L 671,252 L 672,253 L 673,253 L 674,253 L 675,253 L 676,253 L 677,253 L 678,253 L 679,253 L 680,253 L 681,253 L 681,254 L 682,254 L 682,255 L 682,256 L 683,257 L 683,258 L 683,259 L 684,260 L 684,262 L 684,263 L 685,263 L 688,262 L 689,261 L 690,261 L 692,264 L 694,270 L 695,270 L 695,271 L 696,271 L 696,272 L 697,272 L 697,273 L 698,273 L 698,274 L 697,274 L 697,275 L 697,276 L 697,277 L 698,278 L 699,281 L 699,282 L 700,284 L 701,286 L 701,287 L 702,289 L 704,294 L 705,298 L 706,299 L 706,300 L 707,300 L 707,302 L 709,306 L 710,309 L 711,312 L 712,314 L 713,316 L 714,319 L 714,320 L 717,326 L 717,327 L 718,326 L 725,324 L 726,324 L 727,323 L 730,332 L 731,333 L 732,333 L 733,334 L 734,334 L 735,335 L 736,334 L 737,334 L 737,335 L 737,336 L 737,337 L 738,341 L 739,341 L 739,342 L 738,342 L 739,346 L 740,347 L 740,348 L 741,353 L 742,353 L 741,354 L 740,354 L 740,355 L 738,356 L 735,356 L 728,358 L 727,358 L 727,359 L 726,359 L 726,360 L 726,361 L 726,362 L 724,362 L 722,363 L 721,364 L 722,364 L 722,365 L 721,366 L 720,366 L 719,367 L 717,368 L 716,369 L 715,369 L 714,370 L 713,371 L 712,371 L 712,372 L 711,372 L 709,374 L 708,374 L 707,375 L 706,376 L 705,376 L 703,377 L 702,378 L 701,379 L 700,379 L 699,379 L 700,380 L 698,381 L 693,385 L 690,387 L 689,387 L 688,389 L 687,389 L 687,390 L 686,390 L 685,391 L 685,392 L 685,393 L 684,395 L 684,396 L 683,396 L 682,396 L 681,396 L 680,398 L 680,399 L 680,400 L 680,401 L 680,402 L 680,403 L 680,404 L 680,405 L 680,406 L 680,407 L 679,407 L 678,407 L 677,407 L 676,407 L 675,407 L 674,407 L 673,407 L 672,406 L 671,407 L 670,404 L 667,400 L 667,399 L 666,398 L 665,397 L 665,398 L 664,398 L 663,398 L 663,399 L 662,399 L 661,400 L 660,400 L 659,401 L 658,401 L 658,402 L 657,402 L 656,402 L 655,403 L 654,404 L 653,404 L 653,405 L 652,406 L 651,406 L 650,407 L 650,408 L 649,408 L 648,409 L 647,410 L 646,410 L 645,412 L 644,412 L 643,413 L 642,414 L 641,415 L 640,414 L 637,411 L 637,410 L 636,408 L 635,406 L 633,404 L 631,402 L 630,402 L 629,402 L 628,400 L 627,400 L 626,401 L 624,402 L 622,404 L 621,405 L 621,406 L 620,406 L 620,407 L 619,407 L 618,408 L 617,409 L 617,410 L 617,411 L 617,412 L 616,413 L 615,414 L 614,415 L 614,416 L 613,416 L 613,417 L 613,418 L 612,418 L 611,419 L 611,420 L 610,421 L 611,422 L 610,423 L 610,424 L 609,424 L 609,423 L 606,420 L 605,420 L 604,420 L 604,419 L 604,418 L 603,418 L 602,418 L 602,417 L 603,414 L 603,412 L 602,411 L 601,409 L 601,408 L 600,407 L 599,406 L 598,405 L 596,403 L 595,402 L 594,401 L 593,401 L 593,400 L 591,398 L 589,396 L 588,396 L 587,395 L 586,394 L 585,394 L 584,393 L 583,393 L 582,392 L 581,392 L 580,391 L 579,390 L 577,388 L 577,387 L 576,385 L 576,384 L 575,383 L 575,381 L 575,380 L 575,379 L 576,378 L 576,377 L 576,376 L 577,375 L 577,374 L 577,373 L 577,372 L 577,371 L 577,370 L 576,368 L 576,367 L 575,366 L 572,364 L 571,363 L 570,362 L 569,361 L 569,360 L 569,359 L 568,358 L 568,357 L 568,356 L 568,354 L 568,353 L 568,352 L 567,351 L 567,350 L 567,349 L 566,349 L 566,348 L 565,348 L 565,347 L 564,347 L 564,346 L 563,346 L 562,345 L 560,344 L 559,343 L 558,342 L 557,342 L 557,341 L 558,341 L 558,340 L 559,340 L 559,339 L 560,339 L 560,338 L 561,338 L 562,337 L 563,337 L 565,336 L 567,335 L 569,334 L 571,333 L 571,332 L 571,331 L 571,330 L 571,329 L 570,329 L 570,326 L 570,325 L 571,325 L 571,326 L 572,326 L 573,326 L 573,325 L 574,325 L 575,325 L 576,325 L 576,324 L 577,324 L 578,324 L 579,324 L 580,323 L 581,323 L 582,323 L 583,323 L 584,322 L 585,322 L 587,322 L 588,321 L 590,321 L 591,320 L 593,320 L 594,319 L 595,319 L 598,319 L 598,318 L 599,318 L 600,318 L 600,317 L 599,317 L 598,315 L 597,315 L 600,313 L 601,312 L 602,311 L 602,310 L 603,310 L 603,309 L 603,308 L 604,308 L 604,307 L 605,306 L 605,305 L 604,304 L 604,303 L 604,302 L 604,301 L 603,300 L 603,299 L 602,298 L 602,297 L 601,297 L 601,296 L 600,295 L 600,294 L 599,294 L 599,293 L 600,291 L 601,290 L 601,289 L 601,288 L 602,287 L 602,286 L 602,285 L 602,284 L 602,283 L 602,282 L 602,281 L 602,280 L 602,279 L 602,278 L 602,277 L 602,276 L 602,275 L 601,275 L 601,273 L 601,272 L 600,270 L 600,269 L 600,268 L 600,267 L 599,266 L 599,265 L 599,264 L 599,263 L 598,262 L 596,262 L 594,261 L 593,260 L 593,259 L 593,258 L 592,258 L 592,257 L 591,257 L 590,256 L 590,255 L 589,254 L 588,253 L 588,252 L 588,251 L 587,250 L 587,249 L 587,248 L 586,248 L 587,246 L 588,245 L 588,244 L 588,243 L 589,243 L 589,242 L 589,241 L 589,240 L 590,239 L 590,238 L 590,237 L 590,236 L 590,235 L 590,234 L 590,233 L 589,232 L 590,231 L 590,230 L 592,228 L 592,227 L 591,227 L 591,226 L 591,225 L 593,225 L 594,225 L 598,224 L 599,222 L 599,221 L 599,220 L 599,219 L 599,218 L 599,217 L 599,215 L 599,214 L 600,212 L 600,211 L 600,210 L 599,209 L 598,208 L 598,206 L 598,205 L 598,204 L 599,203 L 600,203 L 601,202 L 603,201 L 605,200 L 606,199 L 607,199 L 607,198 L 608,197 L 609,198 L 610,199 L 612,199 L 613,199 L 613,200 L 614,200 L 615,201 L 616,201 L 616,202 L 616,204 L 615,205 L 615,206 L 615,209 L 616,209 L 617,212 L 618,213 L 621,214 L 622,215 L 624,215 L 625,215 L 626,215 L 626,216 L 628,216 L 630,218 L 630,219 L 631,220 L 631,223 " />
</g>
</g>
</g>
<!-- QGIS extent for clipping, eg in Inkscape -->
<g id="qgisviewbox" inkscape:groupmode="layer" inkscape:label="qgisviewbox" stroke="rgb(255,0,0)" stroke-width="1" fill="none" >
<path d="M 0,875 L 1311,875 L 1311,0 L 0,0 L 0,875 " />
</g></svg>